# xmcd
#
# Track frame offsets:
#	150
#	20985
#	23895
#	47208
#	62334
#	94205
#	110831
#	149911
#	174601
#
# Disc length: 2449 seconds
#
# Revision: 2
# Processed by: cddbd v1.4PL0 Copyright (c) Steve Scherf et al.
# Submitted via: MusicWizard 6.0.1
#
DISCID=88098f09
DTITLE=B.B. King - The Best Of B. B. King
DYEAR=1900
DGENRE=Blues
TTITLE0=Hummingbird
TTITLE1=Cook County Jail Introduction
TTITLE2=How Blue Can You Get
TTITLE3=Caldonia
TTITLE4=Sweet Sixteen
TTITLE5=Ain't Nobody Home
TTITLE6=Why I Sing The Blues
TTITLE7=The Thrill Is Gone
TTITLE8=Nobody Loves Me But My Mother
EXTD=
EXTT0=
EXTT1=
EXTT2=
EXTT3=
EXTT4=
EXTT5=
EXTT6=
EXTT7=
EXTT8=
PLAYORDER=
